<svg xmlns="http://www.w3.org/2000/svg" width="141" height="38" fill="none"><path fill="#9C9C9C" d="M11.475 22.737v5.086c0 2.543-1.128 3.46-2.92 3.46-1.793 0-2.92-.917-2.92-3.46V8.596c0-2.543 1.128-3.51 2.92-3.51 1.793 0 2.92.967 2.92 3.51v3.815h5.328V8.952C16.803 3.255 13.933 0 8.402 0 2.868 0 0 3.255 0 8.952v18.515c0 5.697 2.868 8.953 8.402 8.953 5.532 0 8.401-3.256 8.401-8.953v-4.73h-5.328ZM32.735.407l5.738 35.606h-5.687l-.973-6.46h-6.915l-.974 6.46H18.75L24.488.407h8.247ZM28.28 6.714l-2.664 18.007h5.43L28.38 6.713h-.101l-.001.001Zm30.327 29.299h-5.738c-.307-.916-.513-1.476-.513-4.375v-5.595c0-3.306-1.127-4.527-3.688-4.527H46.72v14.497h-5.635V.407h8.505c5.84 0 8.349 2.696 8.349 8.19v2.797c0 3.662-1.178 6.002-3.688 7.172 2.818 1.271 3.74 3.916 3.74 7.63v5.493c0 1.73.052 3.001.615 4.324Zm-9.17-30.52H46.72V16.43h2.203c2.1 0 3.381-.915 3.381-3.764v-3.51c0-2.543-.87-3.663-2.868-3.663ZM75.779.407l5.738 35.606h-5.686l-.973-6.46h-6.916l-.973 6.46h-5.175L67.532.407h8.247Zm-4.456 6.307-2.664 18.007h5.43L71.427 6.713h-.103v.001ZM86.73.407h-5.686l5.532 35.606h8.402L100.51.407h-5.174L91.084 29.45h-.103L86.731.407Zm27.292 0 5.737 35.606h-5.686l-.973-6.46h-6.916l-.974 6.46h-5.174L105.774.407h8.248Zm-4.457 6.307-2.664 18.007h5.431l-2.664-18.008h-.103v.001Zm25.646 29.299H141V.407h-5.021v21.312h-.102L130.19.407h-7.069v35.606h5.072v-25.79h.102l6.916 25.79Z"/></svg>