<svg xmlns="http://www.w3.org/2000/svg" width="154" height="39" fill="none"><path fill="#9C9C9C" fill-rule="evenodd" d="M23.327 16.85h2.753c2.845 0 4.382 3.292 2.529 5.425l-2.695 3.1a7.374 7.374 0 0 0 2.755 4.655 7.575 7.575 0 0 0 5.228 1.574 7.546 7.546 0 0 0 4.924-2.344 7.337 7.337 0 0 0 2.001-5.017 2.433 2.433 0 0 1 .732-1.743 2.497 2.497 0 0 1 1.767-.72c.662 0 1.297.259 1.766.72.468.463.732 1.09.733 1.743 0 2.586-.825 5.106-2.358 7.203a12.466 12.466 0 0 1-4.393 3.734 12.646 12.646 0 0 1-11.278.105 12.475 12.475 0 0 1-4.464-3.65 12.474 12.474 0 0 1-4.464 3.65 12.646 12.646 0 0 1-11.277-.105 12.467 12.467 0 0 1-4.393-3.734 12.202 12.202 0 0 1-2.36-7.203 2.434 2.434 0 0 1 .732-1.744 2.496 2.496 0 0 1 1.767-.72c.663 0 1.298.26 1.766.722.47.462.733 1.088.734 1.742a7.334 7.334 0 0 0 1.992 5.03 7.52 7.52 0 0 0 3.55 2.117c1.361.363 2.799.34 4.147-.067a7.511 7.511 0 0 0 3.477-2.233 7.362 7.362 0 0 0 1.744-3.716l-2.698-3.1c-1.852-2.132-.316-5.423 2.533-5.423h2.75Z" clip-rule="evenodd"/><path fill="#9C9C9C" d="M34.99 10.28c.655 0 1.305-.127 1.912-.374a5 5 0 0 0 1.621-1.068 4.925 4.925 0 0 0 1.084-1.599 4.873 4.873 0 0 0-1.084-5.373A4.999 4.999 0 0 0 36.902.798a5.052 5.052 0 0 0-1.913-.374c-.656 0-1.305.127-1.911.374a5.001 5.001 0 0 0-1.622 1.068 4.926 4.926 0 0 0-1.083 1.6 4.876 4.876 0 0 0 0 3.773c.25.598.62 1.141 1.083 1.599.464.458 1.015.82 1.622 1.068a5.052 5.052 0 0 0 1.911.374Zm-23.327 0c.656 0 1.306-.127 1.912-.374a5 5 0 0 0 1.622-1.068 4.926 4.926 0 0 0 1.083-1.6 4.876 4.876 0 0 0 0-3.773 4.926 4.926 0 0 0-1.083-1.599A5 5 0 0 0 13.575.798a5.052 5.052 0 0 0-1.911-.374c-.657 0-1.306.127-1.913.374A5 5 0 0 0 8.13 1.866a4.926 4.926 0 0 0-1.084 1.6A4.875 4.875 0 0 0 8.13 8.837 5 5 0 0 0 9.75 9.906a5.053 5.053 0 0 0 1.913.374ZM80.49 1.628c.77 0 1.403.217 1.897.651.494.434.742 1.004.742 1.71v24.335c0 .733-.233 1.316-.702 1.75-.466.434-1.085.651-1.854.651-.77 0-1.388-.217-1.856-.65-.467-.435-.7-1.018-.7-1.75v-1.018c-.606 1.112-1.485 1.98-2.64 2.604-1.127.624-2.418.936-3.875.936-1.733 0-3.285-.434-4.659-1.302-1.347-.868-2.405-2.089-3.175-3.663-.743-1.6-1.114-3.43-1.114-5.493 0-2.062.371-3.866 1.114-5.413.77-1.546 1.828-2.74 3.175-3.58 1.347-.842 2.9-1.263 4.659-1.263 1.457 0 2.748.3 3.876.896a6.253 6.253 0 0 1 2.597 2.523V3.907c0-.678.22-1.22.66-1.628.467-.434 1.085-.65 1.855-.65ZM72.862 26.9c1.65 0 2.914-.556 3.794-1.669.906-1.112 1.36-2.7 1.36-4.76 0-2.063-.454-3.637-1.36-4.72-.88-1.114-2.13-1.67-3.752-1.67-1.65 0-2.928.542-3.835 1.628-.907 1.085-1.36 2.645-1.36 4.68 0 2.062.453 3.662 1.36 4.802.907 1.14 2.171 1.71 3.793 1.71Zm24.763 3.947c-2.06 0-3.876-.42-5.442-1.26-1.54-.842-2.735-2.049-3.587-3.623-.853-1.574-1.279-3.405-1.279-5.494s.426-3.907 1.279-5.453c.852-1.574 2.047-2.78 3.586-3.622 1.567-.84 3.382-1.262 5.443-1.262 2.062 0 3.862.42 5.401 1.262a8.504 8.504 0 0 1 3.588 3.622c.852 1.546 1.278 3.364 1.278 5.453 0 2.09-.426 3.92-1.278 5.494a8.505 8.505 0 0 1-3.588 3.622c-1.539.84-3.34 1.261-5.401 1.261Zm-.04-3.947c1.676 0 2.954-.543 3.833-1.628.881-1.085 1.32-2.686 1.32-4.802 0-2.089-.439-3.676-1.32-4.76-.879-1.114-2.144-1.67-3.793-1.67s-2.928.556-3.834 1.67c-.88 1.084-1.32 2.671-1.32 4.76 0 2.116.44 3.717 1.32 4.802.88 1.085 2.144 1.628 3.793 1.628Zm31.631-16.685c.77 0 1.388.217 1.855.65.468.435.701 1.018.701 1.75V28.69c0 3.12-.879 5.48-2.638 7.082-1.76 1.6-4.357 2.4-7.793 2.4-2.996 0-5.498-.555-7.504-1.668-1.017-.597-1.525-1.316-1.525-2.157 0-.597.137-1.07.412-1.424.302-.353.687-.53 1.154-.53.248 0 .55.055.908.164.356.135.728.285 1.112.447a24.72 24.72 0 0 0 2.639.936c.798.217 1.705.326 2.722.326 3.601 0 5.401-1.736 5.401-5.21v-2.604c-.605 1.113-1.484 1.98-2.638 2.605-1.155.597-2.474.895-3.959.895-1.76 0-3.326-.407-4.701-1.22-1.346-.842-2.404-2.008-3.174-3.5-.77-1.493-1.155-3.215-1.155-5.169 0-1.953.372-3.676 1.113-5.168.77-1.52 1.842-2.686 3.216-3.5 1.375-.84 2.941-1.262 4.701-1.262 1.485 0 2.804.312 3.959.936a6.139 6.139 0 0 1 2.638 2.564v-1.058c0-.705.234-1.275.701-1.71.467-.433 1.086-.65 1.855-.65Zm-7.792 15.79c1.649 0 2.927-.53 3.834-1.587.935-1.059 1.402-2.51 1.402-4.355 0-1.872-.467-3.337-1.402-4.395-.907-1.058-2.185-1.587-3.834-1.587-1.622 0-2.901.53-3.835 1.587-.934 1.058-1.402 2.523-1.402 4.395 0 1.845.468 3.296 1.402 4.355.934 1.058 2.213 1.587 3.835 1.587Zm22.984 4.842c-2.995 0-5.414-.583-7.256-1.75-.879-.515-1.319-1.248-1.319-2.197 0-.543.151-.977.453-1.302.303-.353.674-.53 1.113-.53.467 0 1.114.218 1.939.652.879.407 1.676.72 2.391.936.742.217 1.676.325 2.803.325 1.155 0 2.049-.19 2.681-.57.659-.38.989-.908.989-1.587 0-.46-.137-.827-.413-1.098-.247-.272-.714-.516-1.401-.733-.66-.244-1.677-.515-3.051-.814-2.446-.488-4.206-1.18-5.278-2.075-1.045-.895-1.566-2.13-1.566-3.703 0-1.194.356-2.266 1.072-3.216.714-.976 1.69-1.722 2.927-2.238 1.264-.542 2.694-.814 4.287-.814 1.155 0 2.269.15 3.341.448a9.828 9.828 0 0 1 2.886 1.22c.88.543 1.319 1.262 1.319 2.158 0 .542-.151 1.004-.454 1.383-.302.353-.673.53-1.113.53-.302 0-.605-.055-.907-.163a26.396 26.396 0 0 1-1.072-.57c-.797-.407-1.484-.705-2.062-.895-.577-.217-1.291-.326-2.143-.326-1.018 0-1.828.204-2.433.61-.578.407-.866.964-.866 1.67 0 .677.303 1.193.908 1.545.604.353 1.773.706 3.504 1.06 1.842.38 3.285.812 4.329 1.301 1.045.488 1.786 1.1 2.226 1.831.468.733.701 1.67.701 2.808 0 1.845-.783 3.324-2.349 4.436-1.54 1.112-3.602 1.668-6.186 1.668Z"/></svg>