<svg xmlns="http://www.w3.org/2000/svg" width="135" height="38" fill="none"><g clip-path="url(#a)"><path fill="#9C9C9C" d="M2.213 30.072c-.669 0-1.21-.252-1.625-.756C.196 28.812 0 28.154 0 27.342V2.772C0 1.96.184 1.33.553.882.945.434 1.475.21 2.143.21H14.28c1.406 0 2.109.728 2.109 2.184 0 1.428-.703 2.142-2.11 2.142H4.392V12.6h9.196c1.406 0 2.11.728 2.11 2.184 0 1.428-.704 2.142-2.11 2.142H4.391v10.416c0 .812-.196 1.47-.588 1.974-.392.504-.922.756-1.59.756Zm20.517 0c-.622 0-1.14-.21-1.556-.63-.391-.448-.587-1.078-.587-1.89V2.478c0-.812.196-1.428.587-1.848.415-.42.934-.63 1.556-.63s1.141.21 1.556.63c.415.42.622 1.036.622 1.848v25.074c0 .812-.207 1.442-.622 1.89-.415.42-.934.63-1.556.63Zm20.015-5.88c.392 0 .703.182.933.546.254.364.38.854.38 1.47 0 .868-.426 1.596-1.279 2.184a11 11 0 0 1-2.662 1.302c-.99.308-1.936.462-2.835.462-2.72 0-4.875-.952-6.465-2.856-1.59-1.904-2.386-4.508-2.386-7.812 0-2.1.346-3.962 1.038-5.586.691-1.624 1.66-2.884 2.904-3.78 1.268-.896 2.697-1.344 4.287-1.344 1.521 0 2.846.406 3.976 1.218 1.13.812 2.005 1.96 2.627 3.444.623 1.484.934 3.234.934 5.25 0 1.204-.438 1.806-1.314 1.806H32.684c.138 1.932.588 3.36 1.348 4.284.761.896 1.867 1.344 3.32 1.344.737 0 1.382-.112 1.936-.336a16.604 16.604 0 0 0 1.936-.924c.691-.448 1.198-.672 1.52-.672Zm-5.982-11.718c-1.176 0-2.12.448-2.835 1.344-.692.896-1.106 2.184-1.245 3.864h7.814c-.046-1.708-.392-2.996-1.038-3.864-.645-.896-1.544-1.344-2.696-1.344Zm25.29 13.482c.415.504.622 1.078.622 1.722 0 .616-.195 1.176-.587 1.68-.392.476-.853.714-1.383.714-.576 0-1.072-.294-1.487-.882l-4.875-6.552-4.875 6.552c-.438.56-.933.84-1.486.84-.507 0-.957-.238-1.349-.714a2.504 2.504 0 0 1-.587-1.638c0-.644.207-1.218.622-1.722l5.048-6.678-4.771-6.3a2.635 2.635 0 0 1-.623-1.722c0-.644.196-1.19.588-1.638.392-.476.841-.714 1.348-.714.554 0 1.05.28 1.487.84l4.598 6.132 4.598-6.132c.438-.56.934-.84 1.487-.84.53 0 .98.238 1.349.714.391.448.587.994.587 1.638 0 .644-.207 1.218-.622 1.722l-4.771 6.3 5.082 6.678ZM81.18 14.532c1.406.476 2.49 1.344 3.25 2.604.784 1.26 1.176 2.8 1.176 4.62 0 2.52-.75 4.494-2.248 5.922-1.475 1.428-3.514 2.142-6.12 2.142H68.32c-.668 0-1.198-.224-1.59-.672-.37-.448-.553-1.078-.553-1.89V2.772c0-.812.184-1.442.553-1.89.392-.448.922-.672 1.59-.672h8.573c2.536 0 4.518.686 5.947 2.058 1.452 1.344 2.178 3.234 2.178 5.67 0 1.568-.346 2.926-1.037 4.074a5.975 5.975 0 0 1-2.8 2.52Zm-10.648-1.848h5.635c3.066 0 4.598-1.386 4.598-4.158 0-1.4-.38-2.436-1.14-3.108-.761-.672-1.914-1.008-3.458-1.008h-5.635v8.274Zm6.223 12.936c1.613 0 2.789-.35 3.526-1.05.738-.7 1.107-1.792 1.107-3.276 0-1.484-.38-2.59-1.141-3.318-.738-.728-1.902-1.092-3.492-1.092h-6.223v8.736h6.223Zm14.784 4.452c-.622 0-1.14-.21-1.556-.63-.392-.448-.588-1.078-.588-1.89V2.478c0-.812.196-1.428.588-1.848.415-.42.934-.63 1.556-.63s1.141.21 1.556.63c.415.42.622 1.036.622 1.848v25.074c0 .812-.207 1.442-.622 1.89-.415.42-.934.63-1.556.63Zm14.345.084c-1.729 0-3.25-.434-4.564-1.302-1.291-.868-2.293-2.114-3.008-3.738-.714-1.624-1.072-3.514-1.072-5.67s.358-4.032 1.072-5.628c.715-1.624 1.717-2.87 3.008-3.738 1.314-.868 2.835-1.302 4.564-1.302 1.728 0 3.238.434 4.529 1.302 1.293.843 2.343 2.148 3.008 3.738.714 1.596 1.071 3.472 1.071 5.628s-.357 4.046-1.071 5.67c-.665 1.59-1.715 2.895-3.008 3.738-1.291.868-2.801 1.302-4.529 1.302Zm-.035-4.074c1.406 0 2.478-.56 3.215-1.68.738-1.12 1.107-2.772 1.107-4.956 0-2.156-.369-3.794-1.107-4.914-.737-1.148-1.797-1.722-3.18-1.722-1.383 0-2.455.574-3.216 1.722-.737 1.12-1.106 2.758-1.106 4.914 0 2.184.369 3.836 1.106 4.956.738 1.12 1.798 1.68 3.181 1.68Zm26.524-17.22c.646 0 1.164.224 1.556.672.392.448.588 1.05.588 1.806v16.59c0 3.22-.738 5.656-2.213 7.308-1.475 1.652-3.653 2.478-6.534 2.478-2.513 0-4.61-.574-6.293-1.722-.852-.616-1.279-1.358-1.279-2.226 0-.616.116-1.106.346-1.47.254-.364.576-.546.968-.546.207 0 .461.056.761.168.299.14.61.294.933.462.83.42 1.567.742 2.213.966.668.224 1.429.336 2.282.336 3.019 0 4.529-1.792 4.529-5.376V25.62c-.507 1.148-1.245 2.044-2.213 2.688-.968.616-2.074.924-3.319.924-1.475 0-2.789-.42-3.941-1.26-1.13-.868-2.017-2.072-2.662-3.612-.646-1.54-.968-3.318-.968-5.334 0-2.016.311-3.794.933-5.334.645-1.568 1.544-2.772 2.697-3.612 1.152-.868 2.466-1.302 3.941-1.302 1.245 0 2.351.322 3.319.966.943.586 1.715 1.51 2.213 2.646v-1.092c0-.728.196-1.316.587-1.764.392-.448.911-.672 1.556-.672Zm-6.534 16.296c1.383 0 2.455-.546 3.215-1.638.784-1.092 1.176-2.59 1.176-4.494 0-1.932-.392-3.444-1.176-4.536-.76-1.092-1.832-1.638-3.215-1.638-1.36 0-2.432.546-3.215 1.638-.784 1.092-1.176 2.604-1.176 4.536 0 1.904.392 3.402 1.176 4.494.783 1.092 1.855 1.638 3.215 1.638Z"/></g><defs><clipPath id="a"><path fill="#fff" d="M0 0h135v38H0z"/></clipPath></defs></svg>