<svg xmlns="http://www.w3.org/2000/svg" width="141" height="50" fill="none"><g clip-path="url(#a)"><path fill="#9C9C9C" d="m25.27 10.784-4.668 28.298h-6.707L15.6 28.864H8.375l-1.67 10.218H0l4.706-28.298h6.67L9.374 22.732h7.224l2.003-11.948h6.668Zm13.757 28.298.223-6.17h-6.188l-1.816 6.17H24.17l9.523-28.298h12.226l.15 28.298h-7.041Zm-1.519-21.42-2.927 9.983h4.854l.407-9.982-2.334-.001Zm37.337-6.878-4.67 28.298h-6.707l-4.667-15.484-2.52 15.485h-6.708l4.706-28.299h6.892l4.595 14.464 2.407-14.464h6.672Zm15.647 0c3.236 0 5.545.865 6.928 2.594 1.013 1.31 1.518 2.948 1.518 4.913 0 .708-.06 1.454-.183 2.24l-1.446 8.765c-.494 2.96-1.705 5.332-3.631 7.114-1.928 1.782-4.422 2.672-7.486 2.672H75.41l4.706-28.298h10.376Zm-2.336 6.132h-2.408l-2.63 16.034h3.52c1.16 0 2.062-.328 2.704-.982.668-.682 1.124-1.782 1.37-3.301l1.076-6.446c.093-.52.143-1.046.148-1.573 0-2.49-1.259-3.732-3.78-3.732Zm30.641 22.166h-18.601l4.708-28.298h18.601l-1.038 6.132h-11.931l-.852 5.306h9.856l-1.037 6.13h-9.857l-.74 4.599h11.931l-1.04 6.131Zm21.165 0h-16.896l4.706-28.298h6.67l-3.668 22.167H141l-1.038 6.131Zm-65.434 5.036h64.457L136.972 50H72.515l2.013-5.882ZM7.05 0h70.5l-2.015 5.882h-70.5L7.05 0Z"/></g><defs><clipPath id="a"><path fill="#fff" d="M0 0h141v50H0z"/></clipPath></defs></svg>