<svg xmlns="http://www.w3.org/2000/svg" width="172" height="41" fill="none"><g clip-path="url(#a)"><mask id="b" width="172" height="41" x="0" y="0" maskUnits="userSpaceOnUse" style="mask-type:luminance"><path fill="#fff" d="M0 0h172v41H0V0Z"/></mask><g mask="url(#b)"><path fill="#9C9C9C" fill-rule="evenodd" d="M11.523 36.123a.621.621 0 0 1-.316-.093.771.771 0 0 1-.25-.251 2.714 2.714 0 0 1-.372-1.03c-.09-.474-.159-.955-.207-1.44a21.021 21.021 0 0 1-.088-1.876c-.017-1.378-.013-2.756.012-4.134.015-.846.021-1.506.021-1.982V9.565c0-.776.005-1.366.012-1.771.007-.405.033-.863.075-1.374.025-.38.08-.756.165-1.123.083-.283.193-.553.327-.806.124-.265.304-.484.523-.634.255-.154.517-.29.785-.41a4.512 4.512 0 0 1 1.067-.33c.475-.084.952-.155 1.43-.212V1.45L14.333 1H1.168l-.35.45v1.242c2.21.159 3.446.917 3.707 2.273.152 1.145.225 2.303.218 3.462v24.127a29.259 29.259 0 0 1-.131 3.753c-.06.194-.149.372-.261.528a9.45 9.45 0 0 1-.534.7c-.148.173-.29.354-.425.542v.925c11.236 0 18.19.088 20.864.265l.938-3.832-.589-.503a108.662 108.662 0 0 1-13.08 1.19h-.002Zm20.885-11.046a.508.508 0 0 1-.13.026c-.218 0-.327-.096-.327-.29 0-.876.055-1.751.164-2.617.122-.944.326-1.87.61-2.761.273-.903.648-1.757 1.114-2.537.493-.793 1.134-1.435 1.871-1.874a4.5 4.5 0 0 1 2.37-.65 2.929 2.929 0 0 1 1.714.427c.53.32.984.801 1.315 1.397.687 1.232 1.045 2.69 1.025 4.175a1.536 1.536 0 0 1-.205.759c-.13.222-.314.39-.526.483a31.608 31.608 0 0 1-3.651 1.507c-1.743.62-3.48 1.263-5.21 1.93a.515.515 0 0 0-.134.025Zm12.95 8.245c-2.617 1.92-4.877 2.88-6.78 2.88-1.288.034-2.553-.419-3.619-1.295-.991-.805-1.78-1.925-2.278-3.237a11.803 11.803 0 0 1-.73-4.188c9.505-3.576 14.301-5.365 14.388-5.365.378-.094.715-.347.951-.716.236-.368.355-.827.335-1.292a8.845 8.845 0 0 0-.73-3.726c-.46-1.024-1.143-1.878-1.973-2.471a8.675 8.675 0 0 0-2.692-1.295 11.476 11.476 0 0 0-3.13-.41c-1.89-.036-3.762.42-5.493 1.335-1.526.797-2.874 2.02-3.934 3.568a17.475 17.475 0 0 0-2.278 5.02 21.404 21.404 0 0 0-.786 5.828c0 4.07.91 7.118 2.725 9.144 1.643 1.85 3.961 2.774 6.955 2.774 1.716-.021 3.406-.518 4.938-1.453a37.542 37.542 0 0 0 5.287-3.86l-.477-1.028-.68-.213ZM74.72 5.457c-.584-1.845-1.731-3.35-3.205-4.202C69.69.326 67.718-.107 65.739-.013a14.198 14.198 0 0 0-4.284.634 11.971 11.971 0 0 0-3.684 1.903c-1.117.851-2.03 2.04-2.649 3.45a12.09 12.09 0 0 0-.981 5.007c-.001 1.247.25 2.476.73 3.58a10.027 10.027 0 0 0 1.831 2.895 23.28 23.28 0 0 0 2.572 2.365c.907.73 1.846 1.4 2.813 2.008.91.565 1.804 1.165 2.682 1.798.728.498 1.41 1.087 2.038 1.757 1.613 1.815 2.42 3.54 2.42 5.18a7.527 7.527 0 0 1-.442 2.529 6.502 6.502 0 0 1-1.237 2.108 5.6 5.6 0 0 1-1.844 1.514 4.694 4.694 0 0 1-2.189.508 4.915 4.915 0 0 1-2.548-.622c-.8-.44-1.505-1.095-2.063-1.915-1.157-1.602-1.789-3.662-1.776-5.79l-.85-.37-4.337 5.894c.991 1.735 2.335 3.132 3.903 4.057 1.594.946 3.347 1.43 5.123 1.415a13.66 13.66 0 0 0 4.774-.9 16.381 16.381 0 0 0 4.405-2.445c1.3-1.004 2.404-2.338 3.236-3.91.815-1.495 1.251-3.245 1.254-5.035a9.28 9.28 0 0 0-.414-2.814 9.672 9.672 0 0 0-1.068-2.326 10.6 10.6 0 0 0-1.82-2.074 23.516 23.516 0 0 0-2.323-1.865 76.532 76.532 0 0 0-2.92-1.916 35.83 35.83 0 0 1-2.028-1.282 24.301 24.301 0 0 1-1.834-1.434 10.01 10.01 0 0 1-1.656-1.76 8.593 8.593 0 0 1-1.047-2.062 7.422 7.422 0 0 1-.436-2.55 6.375 6.375 0 0 1 .312-2.099 5.584 5.584 0 0 1 .962-1.786c.44-.532.967-.947 1.546-1.22a3.8 3.8 0 0 1 1.822-.365c.77-.04 1.538.126 2.248.487.71.36 1.346.907 1.862 1.6 1.032 1.413 1.683 3.175 1.864 5.048l.763.29 4.252-4.017Zm21.2 10.135c-.389-.825-.953-1.51-1.634-1.982a7.126 7.126 0 0 0-2.159-1.017 9.232 9.232 0 0 0-2.474-.317c-1.587-.027-3.164.3-4.654.965-1.278.561-2.45 1.428-3.445 2.55a14.013 14.013 0 0 0-2.267 3.738 20.323 20.323 0 0 0-1.297 4.427 27.772 27.772 0 0 0-.392 4.73c-.005 1.35.153 2.694.468 3.988a13.067 13.067 0 0 0 1.406 3.502c.658 1.1 1.54 1.974 2.562 2.537a7.339 7.339 0 0 0 3.739.938c4.084 0 7.92-2.176 11.51-6.527l-.435-.767-.545-.158c-2.66 2.484-5.117 3.726-7.369 3.726a4.486 4.486 0 0 1-2.43-.674 5.254 5.254 0 0 1-1.736-1.743 11.45 11.45 0 0 1-1.102-2.458 15.39 15.39 0 0 1-.62-2.708 20.309 20.309 0 0 1-.175-2.643c.005-1.125.085-2.247.24-3.356.17-1.235.426-2.45.763-3.634.306-1.157.837-2.209 1.548-3.066a3.384 3.384 0 0 1 1.099-.894 2.845 2.845 0 0 1 1.3-.308 2.762 2.762 0 0 1 1.712.468c.523.345.957.86 1.252 1.488a10.864 10.864 0 0 1 .959 4.81l.763.37 4.12-2.96a7.787 7.787 0 0 0-.706-3.025Zm7.991 7.862c.111-1.038.304-2.06.578-3.052a12.63 12.63 0 0 1 1.057-2.735 5.606 5.606 0 0 1 1.69-1.916c.732-.51 1.564-.771 2.409-.753.916-.028 1.82.26 2.605.832.729.55 1.315 1.337 1.689 2.273.395.967.68 1.993.85 3.052.179 1.14.267 2.3.262 3.462 0 1.057-.008 1.938-.023 2.642a39.056 39.056 0 0 1-.152 2.538c-.064.83-.184 1.65-.36 2.457-.171.71-.393 1.4-.664 2.062-.25.655-.61 1.24-1.058 1.717a5.075 5.075 0 0 1-1.548 1.057 5.072 5.072 0 0 1-2.125.423c-.797.012-1.578-.275-2.235-.82a5.745 5.745 0 0 1-1.558-2.021 14.035 14.035 0 0 1-.938-2.761 21.712 21.712 0 0 1-.502-2.895 26.777 26.777 0 0 1-.131-2.55c0-1.007.051-2.013.154-3.012Zm-2.703 13.663c1.584 1.744 4.098 2.616 7.543 2.616 1.274.01 2.544-.167 3.782-.53a10.252 10.252 0 0 0 3.29-1.703 10.756 10.756 0 0 0 2.627-2.947 15.183 15.183 0 0 0 1.723-4.387c.439-1.91.652-3.884.632-5.866a13.051 13.051 0 0 0-.719-4.653c-.515-1.47-1.289-2.785-2.268-3.857-1.817-1.972-4.455-2.96-7.913-2.96-3.459 0-6.308 1.296-8.547 3.886-1.099 1.256-1.966 2.779-2.544 4.468a15.406 15.406 0 0 0-.813 5.336c0 4.722 1.068 8.254 3.204 10.597h.003Zm34.117-20.93c1.163 0 1.991.282 2.486.846.46.68.752 1.506.838 2.38.183 1.03.296 2.078.339 3.13.029.926.043 2.12.043 3.582A568.997 568.997 0 0 1 139 31.82c-.007.572-.004 1.246.01 2.022.004.578.033 1.156.088 1.73.044.38.101.794.174 1.242.051.376.154.737.305 1.07.131.265.291.506.478.715.654.718 1.515 1.097 2.398 1.056 1.09 0 2.34-.67 3.75-2.008a45.559 45.559 0 0 0 3.357-3.78l-.501-.9h-.524c-.852.827-1.895 1.316-2.986 1.4a1.434 1.434 0 0 1-.679-.12 1.689 1.689 0 0 1-.586-.434 1.972 1.972 0 0 1-.382-.514 4.429 4.429 0 0 1-.228-1.084 18.356 18.356 0 0 1-.109-2.286c0-.581.025-1.52.076-2.814.04-.92.066-1.84.077-2.762v-1.586c.014-1.71.011-2.893-.011-3.555a30.663 30.663 0 0 0-.251-2.695 5.615 5.615 0 0 0-.676-2.352 4.724 4.724 0 0 0-1.352-1.215 4.06 4.06 0 0 0-2.224-.57c-2.557 0-5.523 1.27-8.894 3.807l-.523-.238a5.756 5.756 0 0 0-.752-2.708c-.429-.68-1.167-1.018-2.213-1.018a5.029 5.029 0 0 0-1.842.383c-.691.28-1.35.662-1.963 1.136-.662.503-1.236.97-1.723 1.4-.487.432-1.05.956-1.689 1.573l.806 1.295c.148-.116.297-.23.447-.343.254-.194.476-.352.665-.476l.676-.436c.234-.154.479-.283.731-.386.192-.08.394-.125.598-.132.253-.007.502.07.72.225.221.177.389.437.478.74.109.32.203.645.283.977.089.447.14.903.153 1.362.029.6.047 1.084.053 1.453.006.369.009.924.01 1.665v.45c0 1.726-.109 7.01-.326 15.855l.545.37 4.905-1.718c-.146-.757-.255-3.144-.328-7.16a625.839 625.839 0 0 1-.105-11.787c2.528-1.656 4.33-2.484 5.406-2.484l.004.002Zm21.147 9.01a.486.486 0 0 1-.131.028c-.217 0-.326-.097-.327-.29.001-.877.055-1.751.164-2.617.123-.944.327-1.87.61-2.762.274-.903.647-1.757 1.112-2.537.494-.794 1.135-1.436 1.871-1.874a4.5 4.5 0 0 1 2.37-.65 2.927 2.927 0 0 1 1.714.427c.531.32.985.801 1.315 1.397.688 1.232 1.046 2.69 1.025 4.175a1.541 1.541 0 0 1-.205.758c-.131.222-.314.39-.525.484a31.786 31.786 0 0 1-3.651 1.507c-1.743.62-3.48 1.263-5.21 1.93a.542.542 0 0 0-.131.025l-.001-.001Zm12.95 8.246c-2.618 1.92-4.878 2.88-6.78 2.88-1.289.033-2.554-.419-3.62-1.294-.991-.805-1.779-1.925-2.277-3.237a11.794 11.794 0 0 1-.731-4.19c9.505-3.575 14.302-5.363 14.389-5.363.378-.094.715-.348.951-.717.236-.368.355-.827.335-1.292a8.85 8.85 0 0 0-.73-3.726c-.461-1.025-1.143-1.878-1.973-2.471a8.686 8.686 0 0 0-2.693-1.295 11.468 11.468 0 0 0-3.13-.41c-1.888-.035-3.761.42-5.491 1.335-1.526.797-2.874 2.02-3.935 3.568a17.48 17.48 0 0 0-2.278 5.02 21.352 21.352 0 0 0-.784 5.828c0 4.07.907 7.117 2.724 9.144 1.642 1.85 3.96 2.774 6.955 2.774 1.716-.022 3.405-.519 4.938-1.453a37.72 37.72 0 0 0 5.287-3.86l-.478-1.028-.679-.213Z" clip-rule="evenodd"/></g></g><defs><clipPath id="a"><path fill="#fff" d="M0 0h172v41H0z"/></clipPath></defs></svg>