<svg xmlns="http://www.w3.org/2000/svg" width="150" height="36" fill="none"><g clip-path="url(#a)"><path fill="#9C9C9C" d="M49.281 35.52V0h-9.097L21.162 27.408l-3.21-3.984c5.74-.864 8.95-5.856 8.95-11.184 0-5.088-2.82-9.36-6.616-10.992C18.39.432 15.569 0 11.822 0H0v35.52h8.805V24.048h.098l8.319 11.472h9.291l3.163-5.136h10.41v5.136h9.195ZM8.805 17.856V7.968h3.503c3.454 0 5.79 1.728 5.79 4.8 0 3.264-2.19 5.088-5.838 5.088H8.804Zm31.282 5.328h-6.033l5.935-9.84h.098v9.84ZM86.178 35.52V0h-8.805l.389 22.464L63.752 0h-7.93v35.52h8.806l-.243-21.696L78.2 35.52h7.978Zm26.552 0v-7.968h-11.189v-6.096h10.849v-7.968h-10.849v-5.52h11.189V0H92.737v35.52h19.994Zm36.549 0-12.697-17.808L148.502 0h-9.632l-10.168 15.984h-.097V0h-9.195v35.52h9.195V20.16h.097l9.827 15.36h10.751Z"/></g><defs><clipPath id="a"><path fill="#fff" d="M0 0h150v36H0z"/></clipPath></defs></svg>