<svg xmlns="http://www.w3.org/2000/svg" width="165" height="49" fill="none"><g fill="#9C9C9C" clip-path="url(#a)"><path d="M44.864 44.014c-2.739 0-4.838-.568-6.3-1.704-1.435-1.168-2.152-2.873-2.152-5.114 0-1.136.314-2.068.939-2.794.653-.757 1.487-1.136 2.505-1.136.6.032 1.056.22 1.37.568.313.316.47.616.47.9 0 .031-.132.142-.392.331-.261.19-.495.474-.705.852-.209.38-.313.9-.313 1.563 0 1.484.366 2.636 1.096 3.457.756.79 1.917 1.183 3.482 1.183 1.07 0 2.01-.252 2.818-.757a4.97 4.97 0 0 0 1.84-1.989 5.679 5.679 0 0 0 .664-2.652c0-1.136-.274-2.114-.821-2.935a6.972 6.972 0 0 0-1.957-2.036c-.783-.568-1.852-1.216-3.209-1.942-1.565-.852-2.83-1.625-3.795-2.32-.97-.699-1.81-1.634-2.467-2.746-.677-1.168-1.016-2.604-1.016-4.309 0-2.746.769-4.798 2.309-6.155 1.565-1.358 3.613-2.036 6.143-2.036 1.983 0 3.705.505 5.166 1.515 1.487 1.01 2.23 2.494 2.23 4.45 0 1.137-.326 2.084-.978 2.842-.626.726-1.448 1.09-2.465 1.09-.6-.033-1.057-.207-1.37-.522-.313-.347-.47-.663-.47-.947 0-.032.17-.142.51-.332.365-.189.677-.473.938-.852.287-.379.43-.9.43-1.562 0-1.168-.377-2.084-1.134-2.747-.73-.663-1.67-.994-2.818-.994-1.59 0-2.804.458-3.638 1.373-.81.884-1.214 1.99-1.214 3.315 0 1.104.248 2.036.743 2.793.495.726 1.292 1.452 2.387 2.178.95.606 1.916 1.174 2.896 1.705 1.67.915 2.987 1.752 3.953 2.51.993.76 1.835 1.78 2.465 2.983.678 1.23 1.018 2.762 1.018 4.592 0 1.58-.418 3.015-1.253 4.31-.808 1.262-1.918 2.256-3.326 2.982-1.383.726-2.909 1.09-4.579 1.09Zm19.811-.378c-1.774 0-3.183-.648-4.226-1.942-1.044-1.294-1.566-2.999-1.566-5.114v-8.76c0-.82-.026-1.42-.078-1.799a1.505 1.505 0 0 0-.47-.994c-.286-.284-.77-.426-1.447-.426-.314 0-.548-.047-.705-.142-.157-.126-.234-.395-.234-.805 0-.19.052-.363.157-.52.104-.19.26-.3.47-.332 1.642-.285 3.052-.695 4.225-1.232.365-.157.665-.252.9-.284h.117c.417 0 .627.3.627.9v14.347c0 1.452.378 2.573 1.134 3.362.734.747 1.664 1.15 2.622 1.136 1.226 0 2.269-.363 3.13-1.089.862-.726 1.436-1.452 1.722-2.178v-9.943c0-.82-.025-1.42-.078-1.8a1.512 1.512 0 0 0-.47-.994c-.287-.284-.77-.426-1.448-.426-.313 0-.547-.047-.703-.142-.157-.126-.236-.395-.236-.805 0-.19.053-.363.157-.52.104-.19.261-.3.47-.332 1.643-.285 3.052-.695 4.226-1.232.365-.157.665-.252.9-.284h.117c.418 0 .627.3.627.9V38.57c0 1.863 1.03 2.794 3.09 2.794.444 0 .666.3.666.9 0 .441-.222.71-.665.804l-6.3.521c-.183 0-.288-.079-.314-.236a4.36 4.36 0 0 1-.039-.71V39.99h-.078a51.82 51.82 0 0 1-1.84 1.988c-.469.442-1.082.821-1.839 1.137-.73.347-1.604.52-2.621.52v.001Zm15.837-.426a.51.51 0 0 1-.263-.076.636.636 0 0 1-.208-.209 1.354 1.354 0 0 1-.156-.662c.026-.41.104-.648.235-.71.131-.095.365-.143.704-.143.678 0 1.161-.142 1.448-.426.287-.284.444-.616.47-.994.052-.38.078-.979.078-1.8V27.347c0-.82-.026-1.42-.078-1.8a1.503 1.503 0 0 0-.47-.993c-.287-.284-.77-.427-1.448-.427-.313 0-.547-.047-.703-.142-.157-.126-.236-.394-.236-.805 0-.189.052-.363.157-.52.104-.19.26-.3.47-.332 1.695-.316 3.09-.726 4.186-1.23.444-.159.744-.254.9-.285h.118c.417 0 .626.3.626.9v2.935h.117c.913-1.105 1.84-1.973 2.779-2.604.94-.663 1.787-.994 2.543-.994.861 0 1.54.394 2.035 1.183.522.758.782 1.642.782 2.652 0 .884-.22 1.673-.664 2.367-.444.695-1.057 1.042-1.84 1.042-.34.007-.677-.09-.978-.284-.26-.19-.404-.347-.43-.473.026-.063.156-.253.39-.569.236-.347.353-.74.353-1.183 0-.569-.13-1.026-.391-1.373a1.116 1.116 0 0 0-.979-.52c-.443 0-1.004.267-1.682.804-.679.505-1.344 1.152-1.995 1.941V38.19c0 .821.025 1.42.077 1.8a1.7 1.7 0 0 0 .51.994c.286.284.769.426 1.447.426h.235c.209 0 .365.048.47.142.104.095.169.332.195.71 0 .253-.052.474-.157.663a.504.504 0 0 1-.47.285 66.355 66.355 0 0 0-4.108-.143c-1.174 0-2.53.05-4.07.143Zm60.775.426c-1.774 0-3.352-.506-4.735-1.516-1.382-1.04-2.465-2.399-3.248-4.072a13.155 13.155 0 0 1-1.134-5.398c0-2.367.456-4.419 1.369-6.155.914-1.768 2.074-3.11 3.483-4.025 1.409-.947 2.83-1.42 4.265-1.42 1.775 0 3.353.52 4.735 1.562 1.357.977 2.466 2.385 3.209 4.072.773 1.627 1.177 3.473 1.174 5.35 0 2.368-.47 4.436-1.408 6.204-.914 1.736-2.074 3.077-3.484 4.024-1.408.916-2.817 1.374-4.226 1.374Zm0-1.752c1.775 0 3.066-.916 3.874-2.747.835-1.83 1.252-4.198 1.252-7.102 0-2.715-.43-4.924-1.291-6.63-.835-1.735-2.113-2.603-3.835-2.603-1.799 0-3.104.9-3.913 2.7-.809 1.798-1.213 4.15-1.213 7.054 0 2.714.418 4.956 1.253 6.723.834 1.737 2.126 2.605 3.873 2.605Zm18.978 1.988c-1.279 0-2.374-.568-3.287-1.704-.913-1.137-1.37-2.762-1.37-4.877v-13.92l-2.269.094a.411.411 0 0 1-.219-.061.53.53 0 0 1-.173-.176 1.251 1.251 0 0 1-.156-.616c0-.284.039-.52.117-.71.105-.22.248-.347.431-.379.913-.22 1.617-.568 2.113-1.04.522-.507.9-1.043 1.135-1.61.235-.6.522-1.5.861-2.7.13-.41.417-.616.86-.616.183 0 .366.063.548.19.182.094.274.252.274.473l-.274 5.398 4.579-.332h.078c.339 0 .508.3.508.9 0 .347-.052.68-.156.994-.078.285-.183.427-.313.427l-4.382-.142V37.86c0 1.042.169 1.91.508 2.604.365.695.952 1.042 1.761 1.042.809 0 1.526-.174 2.152-.52.34-.159.548-.238.626-.238.183 0 .327.095.431.284.104.158.208.38.313.663a.63.63 0 0 1 .039.237c0 .126-.078.268-.235.426-.757.6-1.474.995-2.152 1.184-.652.22-1.435.331-2.348.331Zm-63.248-.947c.104.19.261.284.47.284a64.496 64.496 0 0 1 4.07-.142c1.748 0 3.378.048 4.891.142a.427.427 0 0 0 .247-.072.553.553 0 0 0 .184-.212c.104-.19.156-.41.156-.663-.026-.378-.091-.615-.196-.71-.078-.094-.234-.142-.469-.142h-.235c-.861 0-1.474-.079-1.839-.237-.366-.157-.613-.442-.744-.852-.13-.442-.195-1.152-.195-2.13V23.463h4.148c.091 0 .18-.026.262-.076a.638.638 0 0 0 .207-.208c.131-.189.196-.41.196-.663-.027-.378-.105-.615-.235-.71-.104-.126-.274-.19-.509-.19h-4.069v-2.84c0-1.515.052-2.84.156-3.978a8.8 8.8 0 0 1 .9-3.22c.496-.978 1.265-1.467 2.309-1.467.12 0 .236.008.348.025a9.643 9.643 0 0 1 .086-1.585 5.404 5.404 0 0 0-.16-.003c-2.296.063-4.083 1.12-5.361 3.173-1.252 2.02-1.879 4.656-1.879 7.907v1.99H97.41c-.34 0-.575.046-.705.141-.13.063-.209.316-.234.757 0 .253.052.474.156.663.13.19.3.285.509.285h2.621V38.19c0 .853-.026 1.468-.078 1.847-.025.347-.182.663-.47.947-.287.284-.77.426-1.447.426-.34 0-.574.048-.705.142-.104.063-.169.3-.195.71 0 .253.052.474.156.663Z"/><path fill-rule="evenodd" d="M117.936 9.865a6.253 6.253 0 0 1-.333 2.014 5.446 5.446 0 0 1-.942 1.707 4.388 4.388 0 0 1-1.411 1.14c-.527.264-1.092.4-1.662.399-1.152.001-2.257-.553-3.072-1.539-.816-.986-1.275-2.325-1.276-3.721a6.256 6.256 0 0 1 .332-2.015 5.451 5.451 0 0 1 .943-1.707 4.397 4.397 0 0 1 1.41-1.14 3.693 3.693 0 0 1 1.663-.4c.57 0 1.136.135 1.663.399a4.396 4.396 0 0 1 1.41 1.14c.404.489.724 1.07.943 1.708.219.639.331 1.323.332 2.015Zm-4.348 2.63c.285 0 .568-.067.831-.2.264-.131.503-.325.705-.57.202-.243.362-.533.472-.853a3.127 3.127 0 0 0 0-2.015 2.715 2.715 0 0 0-.471-.854 2.196 2.196 0 0 0-.706-.57 1.843 1.843 0 0 0-.831-.199c-.576 0-1.128.277-1.536.77-.408.493-.637 1.162-.638 1.86.001.698.23 1.368.638 1.86.407.494.96.771 1.536.771Zm-1.906 4.919v25.37c0 .283.066.504.197.662.13.19.312.284.547.284.235 0 .43-.126.587-.378.157-.221.3-.553.431-.995.13-.442.247-.789.352-1.042h.195c1.696 1.547 3.705 2.32 6.026 2.32 1.566 0 3.039-.505 4.422-1.515 1.383-1.01 2.478-2.383 3.288-4.12.834-1.767 1.251-3.708 1.251-5.823 0-2.147-.364-4.056-1.095-5.73-.704-1.704-1.682-3.03-2.935-3.977-1.252-.947-2.648-1.42-4.187-1.42-.939 0-1.891.236-2.857.71-.939.442-1.787 1.12-2.543 2.036h-.117V17.5a5.483 5.483 0 0 1-3.562-.086ZM123.5 39.421c-.965 1.737-2.244 2.605-3.834 2.605-.835 0-1.579-.221-2.231-.663a5.761 5.761 0 0 1-1.526-1.563c-.366-.631-.587-1.2-.665-1.704v-12.5c1.121-1.453 2.504-2.179 4.148-2.179 1.852 0 3.247.884 4.187 2.652.939 1.736 1.408 3.835 1.408 6.297 0 2.936-.495 5.288-1.487 7.055ZM10.478.367c.277-.239.608-.367.948-.367.34 0 .67.128.948.367 7.062 6.104 10.263 13.421 10.465 23.92.093 5.013-.305 9.603-1.52 13.568-1.245 3.968-3.458 7.633-6.717 10.729-.203.191-.44.322-.693.38-.252.06-.512.046-.76-.04-.997-.347-1.167-1.779-1.723-2.671-.556.892-.725 2.323-1.725 2.67-.246.086-.507.1-.759.04a1.516 1.516 0 0 1-.692-.38c-3.258-3.095-5.473-6.76-6.718-10.728C.32 33.89-.08 29.3.013 24.287.215 13.788 3.416 6.47 10.478.367Zm3.651 43.695c2.04-2.27 3.269-4.745 4.137-7.592 1.093-3.48 1.408-7.326 1.313-12.091-.157-8.187-1.74-13.514-6.536-18.46v14.468c1.875.584 2.716 2.81 2.716 5.26 0 2.452-.841 4.678-2.716 5.262v11.837s.87.973 1.086 1.316Zm-5.435 0c-2.04-2.27-3.24-4.745-4.108-7.592-1.093-3.48-1.408-7.326-1.312-12.091.157-8.17 1.732-13.52 6.507-18.46v14.468c-1.875.584-2.717 2.81-2.717 5.26 0 2.452.841 4.678 2.717 5.262v11.837s-.879.985-1.087 1.316Zm2.718-21.045c-.576 0-1.129.276-1.537.77-.407.493-.637 1.162-.637 1.86 0 1.454.973 2.631 2.174 2.631.576 0 1.128-.276 1.536-.77.407-.493.637-1.162.637-1.86 0-1.453-.973-2.631-2.173-2.631Z" clip-rule="evenodd"/></g><defs><clipPath id="a"><path fill="#fff" d="M0 0h165v49H0z"/></clipPath></defs></svg>