<svg xmlns="http://www.w3.org/2000/svg" width="162" height="34" fill="none"><g clip-path="url(#a)"><path fill="#9C9C9C" d="M17.89 32.955a4.97 4.97 0 0 1-2.794-.769c-.859-.532-1.59-1.32-2.128-2.29-1.69 1.879-3.88 2.964-6.174 3.06-4.122 0-6.356-3.465-5.601-8.43.573-3.735 3.14-7.477 3.857-10.48-1.388-1.009-3.45-1.71-4.416.35L0 13.935c.506-2.258 1.728-3.76 3.495-3.76 1.766 0 3.072 1.25 4.755.1h1.344c-.717 4.497-2.529 8.095-3.495 14.393-.589 3.86.506 5.614 2.356 5.614 1.366-.203 2.623-1.007 3.531-2.259a21.359 21.359 0 0 1-1.094-6.918c0-5.47 2.106-11.236 5.639-11.236 1.811 0 3.155 1.502 3.155 5.065 0 3.562-1.811 9.077-4.122 12.54.125.825.488 1.572 1.025 2.113.538.54 1.216.84 1.92.848 3.366 0 5.72-6.02 5.72-11.588s-2.022-5.317-1.848-7.197c.015-.235.07-.464.158-.673.09-.21.211-.396.36-.549.3-.31.693-.465 1.09-.433 1.05 0 2.43 1.583 2.43 8.007 0 8.186-3.653 14.952-8.53 14.952Zm-.763-20.26c-1.05 0-2.061 4.615-2.19 9.383a24.355 24.355 0 0 0 .046 3.06c1.583-3.12 2.55-6.639 2.823-10.284-.008-1.62-.256-2.16-.68-2.16l.001.001Zm16.206 20.053a2.57 2.57 0 0 1-1.303-.18 2.99 2.99 0 0 1-1.116-.823 3.723 3.723 0 0 1-.718-1.309 4.234 4.234 0 0 1-.185-1.548c0-2.204 2.401-13.189 2.401-14.997 0-.854-.166-1.358-.8-1.358-.707.137-1.366.522-1.895 1.106v-1.556c1.099-1.206 2.517-1.898 4-1.952.443-.048.89.02 1.309.2.418.18.798.465 1.115.838.316.372.56.822.716 1.32.154.496.217 1.027.181 1.555 0 2.204-2.399 13.144-2.399 14.943 0 .855.165 1.36.8 1.36.698-.141 1.352-.505 1.895-1.054v1.502c-1.095 1.214-2.516 1.908-4 1.953ZM36.276 1c.33-.012.657.06.96.214.303.154.575.384.794.675.221.289.386.633.484 1.009.097.375.124.771.08 1.161-.081.832-.41 1.6-.927 2.158-.52.564-1.19.884-1.888.901a1.95 1.95 0 0 1-.959-.214 2.318 2.318 0 0 1-.795-.675 2.833 2.833 0 0 1-.483-1.008 3.197 3.197 0 0 1-.08-1.162c.08-.832.41-1.6.926-2.158.52-.563 1.19-.884 1.888-.9Zm9.345 27.035c-.21 1.358-.083 2.303.718 2.303.7-.13 1.356-.495 1.894-1.053l.075 1.511c-1.099 1.206-2.517 1.899-4 1.953-2.612 0-3.623-2.258-3.238-5.065l2.567-17.408c.853-5.812.558-6.577-2.054-6.577l.166-1.403 7.873-1.242-4 26.981Zm22.14-.046c-.212 1.36-.13 2.358.716 2.358.702-.159 1.356-.54 1.895-1.107v1.556c-1.091 1.22-2.514 1.915-4 1.953-.751.066-1.497-.207-2.092-.766-.59-.553-.987-1.356-1.11-2.248-.633.999-1.446 1.81-2.377 2.371a6.006 6.006 0 0 1-3.011.886c-5.005 0-7.11-5.263-6.144-11.588.966-6.324 5.471-11.488 10.567-11.488 1.204-.03 2.396.307 3.465.98l.128-.8c.996-6.19.536-6.397-2.076-6.397l.128-1.403 7.91-1.242-4 26.936Zm-5.428-15.806c-2.906 0-4.838 4.111-5.6 9.176-.8 5.317-.295 8.997 2.438 8.997 1.848 0 3.955-2.7 4.588-6.82L65.315 13.1c-.9-.65-1.936-.968-2.982-.918ZM81.06 33c-5.85 0-7.45-5.02-6.733-9.833l1.91-12.89c.883-5.82.589-6.623-2.023-6.623l.165-1.403 7.896-1.197-1.6 10.931c1.235-1.276 2.793-2.003 4.416-2.06 5.095 0 7.488 5.164 6.567 11.488C90.738 27.737 86.05 33 81.06 33Zm2.733-20.69c-.849.02-1.67.36-2.352.973-.675.609-1.173 1.461-1.422 2.435l-1.178 8.097c-.717 4.813.718 6.774 2.53 6.774 2.648 0 4.294-3.508 5.177-9.275.785-5.164.068-8.978-2.763-8.978l.008-.027Zm15.844 12.018c0 3.86 1.554 5.92 4.528 5.92 1.51 0 3.706-1.25 5.096-2.906l.588 1.601c-1.001 1.263-2.2 2.272-3.527 2.968a9.417 9.417 0 0 1-4.217 1.098c-4.416 0-7.405-3.913-7.405-9.23 0-7.872 5.472-13.845 10.734-13.845 3.2 0 5.004 2.105 5.004 4.561-.037 3.814-3.072 8.097-10.801 9.833Zm5.427-12.09c-2.401 0-4.71 4.164-5.345 10.13 4.839-1.405 6.899-5.318 6.945-7.828-.008-1.403-.559-2.303-1.608-2.303h.008Zm22.547 20.511c-.752.066-1.497-.207-2.092-.766-.591-.554-.987-1.356-1.109-2.248-.61.998-1.404 1.81-2.319 2.373a5.799 5.799 0 0 1-2.965.883c-4.921 0-7.027-5.262-6.038-11.587.988-6.324 5.419-11.48 10.53-11.48a6.86 6.86 0 0 1 3.154.757h4.801l-2.574 17.308c-.211 1.36-.128 2.358.718 2.358.701-.159 1.355-.54 1.894-1.107v1.556c-1.092 1.22-2.515 1.915-4 1.953Zm-3.873-20.566c-2.823 0-4.8 4.111-5.556 9.176-.8 5.317-.248 8.997 2.265 8.997 1.932 0 4-2.807 4.59-6.82l1.554-10.435c-.849-.65-1.842-.97-2.845-.918h-.008Zm22.562 3.661c-1.14 0-1.435-1.052-1.766-2.159-.114-.56-.385-1.053-.768-1.396-.386-.345-.859-.52-1.338-.493-.623-.04-1.236.2-1.722.674-.482.47-.8 1.14-.89 1.881-.128 1.36.717 2.51 2.317 4.165l2.144 2.105c.796.718 1.415 1.686 1.788 2.8.371 1.11.481 2.32.318 3.498-.544 3.76-3.155 6.072-6.651 6.072-4.212 0-6.899-2.96-6.604-4.966.068-.527.291-1.01.63-1.358.339-.35.771-.544 1.219-.549 1.095 0 1.51 1 1.849 2.303.219.75.638 1.392 1.193 1.828.558.436 1.217.641 1.88.583.654.038 1.297-.218 1.805-.718.503-.496.834-1.202.927-1.98.166-1.8-.755-2.906-2.483-4.769l-2.106-2.204c-.74-.673-1.319-1.573-1.676-2.607a7.42 7.42 0 0 1-.347-3.258c.378-2.41 2.265-5.398 6.605-5.398 3.366 0 5.472 2.258 5.284 4.066a2.167 2.167 0 0 1-.496 1.315c-.298.348-.695.55-1.112.565Zm15.406-3.148h-4.084l-1.977 13.332c-.423 2.762-.084 4.013 1.177 4.013.672 0 1.728-.45 3.238-2.303l.083 1.952c-.686.968-1.536 1.745-2.492 2.28a6.387 6.387 0 0 1-3.063.832c-2.861 0-4.295-2.41-3.616-6.873l1.977-13.233h-3.192l.249-2.06h3.223l.845-5.965h4.711l-.884 5.964h4.084l-.279 2.061Z"/></g><defs><clipPath id="a"><path fill="#fff" d="M0 0h162v34H0z"/></clipPath></defs></svg>