<svg xmlns="http://www.w3.org/2000/svg" width="52" height="50" fill="none"><path fill="#818181" fill-opacity=".3" d="M48 13.461c0-1.062.895-1.922 2-1.922s2 .86 2 1.922c0 1.063-.895 1.924-2 1.924s-2-.861-2-1.924ZM48 1.923C48 .861 48.895 0 50 0s2 .861 2 1.923-.895 1.923-2 1.923-2-.86-2-1.923ZM36 13.461c0-1.062.895-1.922 2-1.922s2 .86 2 1.922c0 1.063-.895 1.924-2 1.924s-2-.861-2-1.924ZM36 36.538c0-1.062.895-1.923 2-1.923s2 .861 2 1.923c0 1.063-.895 1.924-2 1.924s-2-.862-2-1.924ZM36 1.923C36 .861 36.895 0 38 0s2 .861 2 1.923-.895 1.923-2 1.923-2-.86-2-1.923ZM36 25c0-1.062.895-1.923 2-1.923s2 .86 2 1.923c0 1.062-.895 1.923-2 1.923s-2-.86-2-1.923ZM24 13.461c0-1.062.895-1.922 2-1.922s2 .86 2 1.922c0 1.063-.895 1.924-2 1.924s-2-.861-2-1.924ZM24 36.538c0-1.062.895-1.923 2-1.923s2 .861 2 1.923c0 1.063-.895 1.924-2 1.924s-2-.862-2-1.924ZM24 1.923C24 .861 24.895 0 26 0s2 .861 2 1.923-.895 1.923-2 1.923-2-.86-2-1.923ZM24 25c0-1.062.895-1.923 2-1.923s2 .86 2 1.923c0 1.062-.895 1.923-2 1.923s-2-.86-2-1.923ZM12 48.077c0-1.062.895-1.923 2-1.923s2 .86 2 1.923C16 49.139 15.105 50 14 50s-2-.861-2-1.923ZM12 13.461c0-1.062.895-1.922 2-1.922s2 .86 2 1.922c0 1.063-.895 1.924-2 1.924s-2-.861-2-1.924ZM12 36.538c0-1.062.895-1.923 2-1.923s2 .861 2 1.923c0 1.063-.895 1.924-2 1.924s-2-.862-2-1.924ZM12 1.923C12 .861 12.895 0 14 0s2 .861 2 1.923-.895 1.923-2 1.923-2-.86-2-1.923ZM12 25c0-1.062.895-1.923 2-1.923s2 .86 2 1.923c0 1.062-.895 1.923-2 1.923s-2-.86-2-1.923ZM0 48.077c0-1.062.895-1.923 2-1.923s2 .86 2 1.923C4 49.139 3.105 50 2 50s-2-.861-2-1.923ZM0 13.461C0 12.4.895 11.54 2 11.54s2 .86 2 1.922c0 1.063-.895 1.924-2 1.924s-2-.861-2-1.924ZM0 36.538c0-1.062.895-1.923 2-1.923s2 .861 2 1.923c0 1.063-.895 1.924-2 1.924s-2-.862-2-1.924ZM0 1.923C0 .861.895 0 2 0s2 .861 2 1.923-.895 1.923-2 1.923-2-.86-2-1.923ZM0 25c0-1.062.895-1.923 2-1.923s2 .86 2 1.923c0 1.062-.895 1.923-2 1.923S0 26.063 0 25Z"/></svg>